<svg width="23" height="22" viewBox="0 0 23 22" fill="none" xmlns="http://www.w3.org/2000/svg">
<path fill-rule="evenodd" clip-rule="evenodd" d="M20.327 21.983H1.697C0.76 21.983 0 21.295 0 20.359V1.693C0 0.758 0.76 0 1.697 0H20.327C21.264 0 22.024 0.758 22.024 1.693V20.359C22.024 21.295 21.264 21.983 20.327 21.983ZM8.863 4.241C7.857 4.241 7.421 4.401 6.764 4.722C6.106 5.042 5.632 5.609 5.387 6.118C5.142 6.628 5.02 7.248 5.02 8.282V9.29H3.002V11.963H5.02V19.995H8.004V11.963H10.722L11.33 9.29H8.004V8.339C8.004 7.715 8.117 7.292 8.345 7.072C8.573 6.852 9.546 6.721 10.07 6.721C10.603 6.721 11.03 6.968 11.568 7.282L12.21 4.86C11.222 4.582 9.894 4.241 8.863 4.241Z" fill="currentcolor"/>
</svg>
