<svg width="16" height="16" viewBox="0 0 16 16" fill="none" xmlns="http://www.w3.org/2000/svg">
<path fill-rule="evenodd" clip-rule="evenodd" d="M15.533 15.533C14.947 16.119 13.998 16.119 13.412 15.533L10.764 12.885C9.676 13.583 8.389 14 7 14C3.134 14 0 10.866 0 7C0 3.134 3.134 0 7 0C10.866 0 14 3.134 14 7C14 8.389 13.583 9.675 12.886 10.764L15.533 13.412C16.119 13.998 16.119 14.947 15.533 15.533ZM7 2C4.239 2 2 4.239 2 7C2 9.761 4.239 12 7 12C9.762 12 12 9.761 12 7C12 4.239 9.762 2 7 2Z" fill="currentcolor"/>
</svg>
