<svg width="22" height="22" viewBox="0 0 22 22" fill="none" xmlns="http://www.w3.org/2000/svg">
<path fill-rule="evenodd" clip-rule="evenodd" d="M10.989 0C4.92 0 0 4.92 0 10.989C0 15.512 2.734 19.397 6.638 21.084C6.61 20.318 6.63699 19.404 6.83099 18.576C7.04399 17.682 8.252 12.566 8.252 12.566C8.252 12.566 7.899 11.862 7.899 10.821C7.899 9.188 8.847 7.966 10.026 7.966C11.029 7.966 11.514 8.721 11.514 9.623C11.514 10.631 10.871 12.139 10.539 13.536C10.264 14.706 11.128 15.661 12.282 15.661C14.37 15.661 15.776 12.977 15.776 9.796C15.776 7.38 14.15 5.57 11.188 5.57C7.844 5.57 5.757 8.065 5.757 10.852C5.757 11.813 6.04199 12.492 6.48599 13.015C6.68999 13.256 6.71801 13.353 6.64301 13.631C6.59001 13.833 6.471 14.321 6.42 14.516C6.347 14.795 6.119 14.893 5.867 14.791C4.327 14.163 3.608 12.475 3.608 10.578C3.608 7.445 6.251 3.688 11.491 3.688C15.703 3.688 18.474 6.736 18.474 10.005C18.474 14.334 16.068 17.565 12.523 17.565C11.332 17.565 10.211 16.921 9.82899 16.192C9.82899 16.192 9.18699 18.73 9.05299 19.222C8.82099 20.06 8.37501 20.897 7.96201 21.556C8.92201 21.831 9.938 21.978 10.989 21.978C17.058 21.978 21.978 17.058 21.978 10.989C21.978 4.92 17.058 0 10.989 0Z" fill="currentcolor"/>
</svg>
