<svg width="24" height="20" viewBox="0 0 24 20" fill="none" xmlns="http://www.w3.org/2000/svg">
<path fill-rule="evenodd" clip-rule="evenodd" d="M16.308 0.00116724C18.214 -0.0328328 19.228 0.680167 20.196 1.58717C21.018 1.51517 22.087 1.04317 22.716 0.714167C22.92 0.600167 23.124 0.485167 23.328 0.370167C22.969 1.36817 22.481 2.15017 21.732 2.74317C21.566 2.87517 21.401 3.05217 21.192 3.13617C21.192 3.14017 21.192 3.14417 21.192 3.14817C22.26 3.13717 23.14 2.64317 23.976 2.37417C23.976 2.37817 23.976 2.38217 23.976 2.38717C23.537 3.10417 22.943 3.83217 22.308 4.35317C22.052 4.56317 21.796 4.77117 21.54 4.98017C21.554 6.14217 21.524 7.25017 21.312 8.22617C20.084 13.9002 16.829 17.7512 11.676 19.4022C9.826 19.9942 6.836 20.2372 4.716 19.6962C3.665 19.4282 2.715 19.1262 1.824 18.7252C1.329 18.5032 0.869999 18.2622 0.431999 17.9872C0.287999 17.8982 0.144 17.8072 0 17.7172C0.478 17.7312 1.037 17.8672 1.572 17.7782C2.055 17.6982 2.53 17.7192 2.976 17.6182C4.089 17.3682 5.077 17.0362 5.928 16.5252C6.34 16.2762 6.967 15.9852 7.26 15.6272C6.707 15.6372 6.206 15.5062 5.796 15.3572C4.205 14.7792 3.278 13.7182 2.676 12.1232C3.158 12.1772 4.547 12.3072 4.872 12.0242C4.265 11.9902 3.681 11.6292 3.264 11.3612C1.984 10.5382 0.939998 9.15817 0.947998 7.03417C1.116 7.11517 1.284 7.19817 1.452 7.27917C1.773 7.41917 2.1 7.49317 2.484 7.57417C2.646 7.60817 2.97 7.70617 3.156 7.63617C3.148 7.63617 3.14 7.63617 3.132 7.63617C2.884 7.33917 2.481 7.14217 2.232 6.82417C1.411 5.77617 0.640998 4.16117 1.128 2.23917C1.251 1.75117 1.447 1.32017 1.656 0.923167C1.664 0.927167 1.672 0.931167 1.68 0.936167C1.775 1.14217 1.989 1.29317 2.124 1.46417C2.543 1.99817 3.061 2.47917 3.588 2.90217C5.384 4.34617 7.002 5.23317 9.6 5.89017C10.259 6.05717 11.021 6.18417 11.808 6.18517C11.587 5.52317 11.658 4.45317 11.832 3.81217C12.27 2.20217 13.221 1.04117 14.616 0.419167C14.95 0.270167 15.32 0.162167 15.708 0.0751672C15.908 0.0501672 16.108 0.0261672 16.308 0.00116724Z" fill="currentcolor"/>
</svg>
