<svg width="22" height="22" viewBox="0 0 22 22" fill="none" xmlns="http://www.w3.org/2000/svg">
<path fill-rule="evenodd" clip-rule="evenodd" d="M19.271 21.98H2.707C1.212 21.98 0 20.767 0 19.272V2.708C0 1.213 1.212 0 2.707 0H19.271C20.766 0 21.978 1.213 21.978 2.708V19.272C21.978 20.767 20.766 21.98 19.271 21.98ZM10.989 6.985C9.378 6.985 7.99299 7.939 7.35699 9.311H7.354C7.347 9.325 7.343 9.341 7.336 9.355C7.298 9.44 7.26399 9.527 7.23199 9.615C7.21699 9.656 7.2 9.698 7.186 9.74C7.157 9.829 7.133 9.922 7.109 10.014C7.099 10.057 7.086 10.099 7.076 10.144C7.055 10.241 7.04 10.341 7.027 10.441C7.021 10.481 7.013 10.52 7.008 10.562C6.993 10.703 6.985 10.845 6.985 10.99C6.985 13.202 8.777 14.994 10.989 14.994C13.201 14.994 14.993 13.202 14.993 10.99C14.993 10.845 14.985 10.703 14.97 10.562C14.965 10.52 14.957 10.481 14.951 10.441C14.938 10.341 14.923 10.241 14.902 10.144C14.892 10.099 14.879 10.057 14.869 10.014C14.845 9.922 14.821 9.829 14.792 9.74C14.778 9.698 14.761 9.656 14.746 9.615C14.714 9.527 14.68 9.44 14.642 9.355C14.635 9.341 14.631 9.325 14.624 9.311H14.621C13.985 7.939 12.6 6.985 10.989 6.985ZM18.998 4.069C18.998 3.47 18.513 2.985 17.915 2.985H17.042C16.444 2.985 15.959 3.47 15.959 4.069V4.906C15.959 5.504 16.444 5.989 17.042 5.989H17.915C18.513 5.989 18.998 5.504 18.998 4.906V4.069ZM19.967 9.001H16.699C16.853 9.562 17.041 10.433 17.041 11.043C17.041 14.707 13.963 17.037 10.989 17.037C7.945 17.037 4.942 14.707 4.942 11.043C4.942 10.433 5.157 9.562 5.311 9.001L2.016 8.97V18.885C2.016 19.483 2.501 19.968 3.099 19.968H18.884C19.482 19.968 19.967 19.483 19.967 18.885V9.001Z" fill="currentcolor"/>
</svg>
