<svg width="24" height="24" viewBox="0 0 24 24" fill="none" xmlns="http://www.w3.org/2000/svg">
<path fill-rule="evenodd" clip-rule="evenodd" d="M19.533 19.533C18.947 20.119 17.998 20.119 17.412 19.533L14.764 16.885C13.676 17.583 12.389 18 11 18C7.134 18 4 14.866 4 11C4 7.134 7.134 4 11 4C14.866 4 18 7.134 18 11C18 12.389 17.583 13.675 16.886 14.764L19.533 17.412C20.119 17.998 20.119 18.947 19.533 19.533ZM11 6C8.239 6 6 8.239 6 11C6 13.761 8.239 16 11 16C13.762 16 16 13.761 16 11C16 8.239 13.762 6 11 6Z" fill="#333333"/>
</svg>
